PathFileType	4	(X/Y/Z)	18_1_24_p0_0-315_filt_butterworth.trc
DataRate	CameraRate	NumFrames	NumMarkers	Units	OrigDataRate	OrigDataStartFrame	OrigNumFrames
49.0	49.0	5	27	m	49.0	118	315
Frame#	Time	RHip			RKnee			RAnkle			RBigToe			RSmallToe			RHeel			LHip			LKnee			LAnkle			LBigToe			LSmallToe			LHeel			Neck			Head			Nose			RShoulder			RElbow			RWrist			RThumb			RIndex			RPinky			LShoulder			LElbow			LWrist			LThumb			LIndex			LPinky			
		X1	Y1	Z1	X2	Y2	Z2	X3	Y3	Z3	X4	Y4	Z4	X5	Y5	Z5	X6	Y6	Z6	X7	Y7	Z7	X8	Y8	Z8	X9	Y9	Z9	X10	Y10	Z10	X11	Y11	Z11	X12	Y12	Z12	X13	Y13	Z13	X14	Y14	Z14	X15	Y15	Z15	X16	Y16	Z16	X17	Y17	Z17	X18	Y18	Z18	X19	Y19	Z19	X20	Y20	Z20	X21	Y21	Z21	X22	Y22	Z22	X23	Y23	Z23	X24	Y24	Z24	X25	Y25	Z25	X26	Y26	Z26	X27	Y27	Z27	
118	2.4081632653061225	0.29656070094277587	0.7791779334478708	0.542483021903884	0.2548620441924551	0.35731308259709244	0.5860199128439403	0.23511563968188043	-0.016958773884936815	0.5807139417289132	0.22229699650804938	0.01757427767902628	0.38606698121348815	0.27912733174451854	0.007127734694286292	0.4164142826386192	0.22029701376825883	-0.09184828743721332	0.6612612680983037	0.08858954291817156	0.8197482546647004	0.5416348593853477	0.04941458743701876	0.3614604971369827	0.5817994067915876	0.03864148618849888	-0.01662750731285627	0.5883678091678504	0.06552889798971104	0.02757373365556321	0.39173828007427924	0.0034001482494779734	0.014087261901561565	0.4302911292129447	0.04920458572898988	-0.06720181437168317	0.6368459419558588	0.26528327630012727	1.325189697962611	0.5003801281230446	0.24577007959445232	1.5739442587404782	0.43416022402457	0.22540301003610036	1.4524488098233803	0.391956326661443	0.4025078499101453	1.2150043556628431	0.4888570025759236	0.4578362223056808	0.9567059762758572	0.5186101794014901	0.477386929640225	0.7112241973933286	0.5111362317581992	0.42914006479157696	0.6035368096637518	0.5059052165499671	0.4463711654407372	0.5876777431530332	0.5085887387214011	0.4890372716500373	0.5679280026019797	0.560958820079067	0.12594720648402208	1.2740571143884944	0.5808301775609639	0.07106726678823405	1.009748470861315	0.9172218435713604	0.057469417417944146	1.0170467342309333	1.1641970947416573	0.06867111691113768	1.0281567683803339	1.3451990205389857	0.0395725242626445	1.0308099341485333	1.337968508916204	0.05272749924452734	1.0317585084235084	1.2570642062763302	
119	2.4285714285714284	0.29654074168385103	0.7803943732128704	0.5410232656106959	0.2551915406486766	0.35790540493610146	0.586583446460844	0.23428593248892407	-0.01699781793963849	0.5806200676257394	0.22070722856068153	0.019115408567471417	0.38572409276583175	0.27736775162322147	0.006977538505295353	0.4165136469282507	0.22034481946835172	-0.09195992822061858	0.6615973078597327	0.08893510469816121	0.8198414422287286	0.5411593238402095	0.04930602537411899	0.3617080418315648	0.5811898258013277	0.03871842842217915	-0.01708906488519997	0.5885991621268595	0.06554798966800723	0.02703792013117217	0.39217897177074157	0.004072377646727517	0.012942674279426442	0.42988813468892395	0.049468457254811526	-0.06625282505896105	0.63581491646411	0.2639105511413373	1.3260228955690858	0.5000369872434492	0.24647684542841233	1.574674457221783	0.43247414249099647	0.22544582175546046	1.452215299980471	0.39207702301562086	0.4025584778952168	1.2154743102796677	0.48916918480369054	0.45675980218292167	0.9590571921789954	0.5160735937268021	0.47909087632953595	0.7111864500757075	0.5162636558747721	0.42912825131420274	0.605637763761265	0.5068896841335511	0.44639648879859545	0.5889824164025533	0.5079037509660538	0.4890315228868526	0.5699348819753285	0.560786954168667	0.12478336432787718	1.2745942663028473	0.5792317672870689	0.06263312363654308	1.0167178958945917	0.8929507372185	0.05746941741794416	1.0170467342309328	1.1641970947416573	0.06867111691113768	1.0281567683803339	1.3451990205389857	0.0395725242626445	1.0308099341485333	1.337968508916204	0.05272749924452734	1.0317585084235084	1.2570642062763302	
120	2.4489795918367347	0.2967451809740172	0.781534761609359	0.5396793087094606	0.25557040128608866	0.3584741171549901	0.5871435008174412	0.23348381661458836	-0.016814915848338538	0.5803089548188428	0.2193799095431785	0.020677289209846857	0.38565767780089516	0.2757776691591473	0.006797325781968816	0.41668925449568145	0.22040171990446944	-0.09189581911758146	0.6619548120260852	0.08948409724118453	0.8197318242107425	0.5409260087142209	0.04915603733004563	0.3620165251228802	0.5803958632031145	0.03878291626593486	-0.017468230882841357	0.5887973182946068	0.06597323138353868	0.026051477779476362	0.39338387776300776	0.0052169964721622926	0.01172923554808171	0.4294223467296533	0.04964612165957575	-0.0649788908212881	0.6344185665610749	0.26209972004064763	1.3270860999179703	0.4998933366013054	0.24740845676709777	1.575610168978004	0.4301393691958869	0.22549990391633473	1.4522354129265422	0.39224023855018275	0.40241859272443326	1.2160182193810958	0.48951129196830434	0.45557183505365884	0.9616121974537156	0.5137629343124092	0.47929032020567086	0.712244497568545	0.5208359948472562	0.428710094528406	0.6078069206757708	0.5094762103436135	0.4463367950654794	0.5910601433402037	0.5072702520686715	0.4884250296756768	0.5731912894050628	0.5592019820915275	0.12364914096757518	1.274388746618701	0.577551599492361	0.05139534343352195	1.0260479359831118	0.8607018515296454	0.05746941741794416	1.0170467342309326	1.1641970947416571	0.06867111691113768	1.0281567683803339	1.3451990205389857	0.0395725242626445	1.0308099341485333	1.337968508916204	0.05272749924452734	1.0317585084235084	1.2570642062763302	
121	2.4693877551020407	0.29719712421015027	0.7824938228261245	0.538671724626653	0.25588525647249877	0.35901214789677244	0.587634725117882	0.23286205804334606	-0.016547296602233447	0.5800079617998098	0.21817867338826613	0.022049372557726044	0.38582129597805187	0.2742629329026718	0.0066048867355600616	0.4169095071482793	0.2204633007662758	-0.0916166193629621	0.6622499568418567	0.08997861887512616	0.8193453986437477	0.5411352801967207	0.048987324375050795	0.362459345840173	0.5794734548988659	0.038817939013516316	-0.017645037030393995	0.5889138490690013	0.06668057380017381	0.024731689121193653	0.3951942855140145	0.00656688200882973	0.010664654908083951	0.42897321276040795	0.04973251239955154	-0.06346965864706514	0.6327769205815679	0.2599337157533662	1.328368607947985	0.49957237031686885	0.24821940617100774	1.576610390214092	0.42756583234649925	0.2254680538388354	1.4526118236365892	0.39210470999125246	0.40204152293776674	1.2163856476670594	0.48971430798161175	0.4543996050551261	0.963983842791539	0.5116752135194645	0.4780082142306362	0.7141289327827378	0.5242088470028474	0.42809673565336853	0.6098912037880191	0.5126884932660861	0.44653797485914	0.5934888410086979	0.508271629990951	0.48771117453085744	0.5776862751131006	0.5571150568560952	0.1225477499455357	1.2739899800027417	0.5750868976806385	0.039015964326665965	1.0363268313477747	0.8245310142825267	0.05746941741794415	1.0170467342309326	1.1641970947416571	0.06867111691113768	1.0281567683803339	1.3451990205389857	0.0395725242626445	1.0308099341485333	1.337968508916204	0.05272749924452734	1.0317585084235084	1.2570642062763302	
122	2.489795918367347	0.2978059953184266	0.7834629103272132	0.5377609509225145	0.25614575435285974	0.3595223785423258	0.5880278011737082	0.23239178174656422	-0.0164117372218429	0.5799583738024138	0.2171464818610132	0.023142239595817182	0.3860691302678083	0.27287002245756786	0.0064434468613966955	0.41709944714930286	0.22052329884524438	-0.09108096387685327	0.6624596785780287	0.09028889330433282	0.8187289923687794	0.5418358423979992	0.04880182203716358	0.3630183406686685	0.5784698170269205	0.03882026601180957	-0.017599829099411823	0.588941492453458	0.0675198008143582	0.023397547045051537	0.3969272565174108	0.007749132271133254	0.010044900412732621	0.4286894859419264	0.049721136329399195	-0.061992673211862935	0.6312582276669033	0.25742894436264735	1.3298333870167858	0.4985989100526901	0.24853223653172019	1.577499682235038	0.4255176628753967	0.22524668261265174	1.4533374023413905	0.3912079240444507	0.40140526450021563	1.216447598941063	0.48970347236950873	0.45337446784073765	0.9661179873659007	0.5099048333831021	0.475764794733639	0.716958973575913	0.5259373730838212	0.4273321542779204	0.611957944331414	0.516043336688342	0.44700385063385506	0.5963233967235037	0.5113836039230004	0.487305871224868	0.5832960640834536	0.5553906725763731	0.12132510859211976	1.2739811865438513	0.5712177068904282	0.027219612745167068	1.0456507380319497	0.7891485653412339	0.05746941741794415	1.0170467342309326	1.1641970947416571	0.06867111691113768	1.0281567683803339	1.3451990205389857	0.0395725242626445	1.0308099341485333	1.337968508916204	0.05272749924452734	1.0317585084235084	1.2570642062763302	
